<?xml version="1.0" encoding="UTF-8" standalone="no"?>
<!DOCTYPE svg PUBLIC "-//W3C//DTD SVG 20010904//EN"
              "http://www.w3.org/TR/2001/REC-SVG-20010904/DTD/svg10.dtd">

<svg xmlns="http://www.w3.org/2000/svg"
     width="8.88889in" height="8.88889in"
     viewBox="0 0 800 800">
  <path id="Selection #1"
		fill="#ffffff"
        d="M 167.00,0.44
           C 176.95,-0.84 197.37,-0.52 207.00,1.89
             224.61,6.32 245.16,18.50 261.00,27.58
             261.00,27.58 310.00,55.58 310.00,55.58
             310.00,55.58 596.00,219.72 596.00,219.72
             596.00,219.72 653.00,252.55 653.00,252.55
             664.66,259.46 673.33,263.83 684.00,272.75
             697.08,283.70 709.26,299.19 709.96,317.00
             710.97,342.65 692.11,357.64 674.00,372.00
             674.00,372.00 651.00,390.40 651.00,390.40
             651.00,390.40 633.00,404.80 633.00,404.80
             630.68,406.65 627.11,410.07 624.00,409.87
             621.38,409.70 612.63,403.72 610.00,402.00
             610.00,402.00 580.00,382.81 580.00,382.81
             580.00,382.81 475.00,315.81 475.00,315.81
             475.00,315.81 446.00,297.42 446.00,297.42
             441.95,294.89 434.75,291.12 432.57,286.91
             430.08,282.10 431.84,277.07 431.99,272.00
             431.99,272.00 434.28,245.00 434.28,245.00
             434.28,245.00 436.00,228.00 436.00,228.00
             436.07,222.00 436.16,217.65 433.65,212.00
             432.05,208.39 429.74,204.93 426.91,202.17
             420.73,196.17 396.73,182.64 388.00,177.58
             388.00,177.58 326.00,140.60 326.00,140.60
             326.00,140.60 224.00,80.20 224.00,80.20
             220.60,78.16 212.82,74.15 211.02,70.90
             208.66,66.62 212.38,57.90 203.00,53.58
             195.59,50.18 186.80,56.60 183.44,63.00
             181.66,66.39 180.83,71.19 181.10,75.00
             182.27,91.80 205.14,102.48 218.00,110.20
             218.00,110.20 334.00,179.20 334.00,179.20
             334.00,179.20 382.00,207.80 382.00,207.80
             389.79,212.47 399.32,217.23 403.05,226.00
             406.13,233.26 404.89,240.50 404.17,248.00
             404.17,248.00 401.32,283.00 401.32,283.00
             400.67,291.71 406.27,302.78 412.17,308.91
             416.59,313.50 427.23,319.81 433.00,323.42
             433.00,323.42 462.00,342.00 462.00,342.00
             462.00,342.00 577.00,415.31 577.00,415.31
             577.00,415.31 634.00,452.66 634.00,452.66
             652.07,466.70 666.75,482.45 669.16,506.00
             669.83,512.49 669.52,519.73 667.48,526.00
             665.72,531.42 663.49,535.64 660.83,539.12
             657.61,543.33 653.78,546.45 649.44,549.27
             644.29,552.62 638.42,555.55 632.00,559.40
             632.00,559.40 548.00,607.85 548.00,607.85
             548.00,607.85 311.00,743.85 311.00,743.85
             311.00,743.85 281.00,761.01 281.00,761.01
             281.00,761.01 242.00,783.25 242.00,783.25
             230.08,789.21 218.11,795.40 205.00,798.34
             194.81,800.62 184.37,800.05 174.00,800.00
             132.37,799.80 109.06,754.98 109.00,718.00
             109.00,718.00 109.00,172.00 109.00,172.00
             109.00,172.00 109.00,138.00 109.00,138.00
             109.00,93.61 101.97,32.21 148.00,6.86
             153.90,3.61 160.41,1.67 167.00,0.44 Z" />
</svg>
